<svg xmlns="http://www.w3.org/2000/svg" xmlns:xlink="http://www.w3.org/1999/xlink" version="1.1" id="Laag_1" x="0px" y="0px" viewBox="0 0 100 100" enable-background="new 0 0 100 100" xml:space="preserve" height="100px" width="100px">
<path d="M88.6,35.7c-3.4,0-6.3,0.2-8.7,0.6c-0.7-1.2-1.7-1.9-2.9-1.9c-1,0-2,0.6-2.7,1.6c-3.1-0.2-7-0.3-11.2-0.3  c-10,0-7.7,4.6,2.3,4.6c3,0,5.7-0.2,7.9-0.5c0.3,0.8,1.3,1.4,2.5,1.6V43c-1.4,0.2-2.5,0.9-2.5,2c0,0.4,0.1,0.7,0.1,1H55.9  c-1.6-1.3-3.7-2.1-5.9-2.1s-4.3,0.8-5.9,2.1H26.6c0-0.3,0.1-0.6,0.1-1c0-1.1-1.1-1.8-2.5-2v-1.6c1.2-0.2,2.2-0.8,2.5-1.6  c2.2,0.3,4.9,0.5,7.9,0.5c10,0,12.3-4.6,2.3-4.6c-4.2,0-8.1,0.1-11.2,0.3C25,35,24,34.4,23,34.4c-1.2,0-2.2,0.7-2.9,1.9  c-2.4-0.4-5.3-0.6-8.7-0.6c-10,0-12.3,4.6-2.3,4.6c3.8,0,7.3-0.1,10.3-0.3c0.3,0.8,1.3,1.2,2.4,1.4V43c-1.4,0.3-2.5,0.9-2.5,2  c0,2.9,1.7,5.2,3.8,5.2c0.8,0,1.5-0.3,2.1-0.9h7.3l-10.6,22c-0.5,1-0.1,2.3,1,2.7c1,0.5,2.3,0.1,2.7-1l11-22.9  c0.1-0.3,0.2-0.6,0.2-0.9h4.9c-0.4,0.9-0.7,2-0.8,3.1h-1.1c-2,0-3.7,1.7-3.7,3.7v11.1c0,2,1.7,3.7,3.7,3.7h4.4  c1.4,1.9,3.6,3.2,6.1,3.2s4.8-1.3,6.1-3.2h4.4c2,0,3.7-1.7,3.7-3.7V56.2c0-2-1.7-3.7-3.7-3.7h-1.1c-0.1-1.1-0.4-2.1-0.8-3.1h4.9  c0,0.3,0.1,0.6,0.2,0.9l11,22.9c0.5,1,1.7,1.5,2.7,1s1.5-1.7,1-2.7l-10.6-22l6.7-0.2c0.6,0.6,1.3,0.9,2.1,0.9c2.1,0,3.8-2.3,3.8-5.2  c0-1.1-1.1-1.7-2.5-2v-1.6c1.1-0.2,2.1-0.6,2.4-1.4c3,0.2,6.5,0.3,10.3,0.3C100.9,40.3,98.6,35.7,88.6,35.7z M42.2,57.3  c-1.5,0-2.8-0.7-2.8-1.5s1.3-1.5,2.8-1.5S45,55,45,55.8S43.7,57.3,42.2,57.3z M50,68.9c-2.9,0-5.2-2.3-5.2-5.2  c0-2.9,2.3-5.2,5.2-5.2s5.2,2.3,5.2,5.2C55.2,66.5,52.9,68.9,50,68.9z"/>
</svg>